# xmcd CD database file generated by LOLA_Freedb v0.9beta0
# 
# Track frame offsets:
#      182
#      13157
#      24390
#      40612
#      56972
#      67790
#      79677
#      92202
#      104460
#      112970
#      124990
#      137040
#      145600
#      158080
#      168097
#      186237
#      203567
#      210652
#      223312
# 
# Disc length: 3148 seconds
# 
# Revision: 5 
# Processed by: cddbd v1.5.2PL0 Copyright (c) Steve Scherf et al.
# Submitted via: LOLA_Freedb v0.9beta0
# 
DISCID=080c4a13
DTITLE=Johnny Cash - The Best Of Johnny Cash
DYEAR=1995
DGENRE=Country
TTITLE0=Johnny Cash - Ring Of Fire
TTITLE1=Big River
TTITLE2=A Boy Named Sue
TTITLE3=The City Of New Orleans
TTITLE4=Rock Island Line
TTITLE5=Highwayman
TTITLE6=Long Black Veil
TTITLE7=Folsom Prison Blues
TTITLE8=I Got Stripes
TTITLE9=I Still Miss Someone
TTITLE10=Sixteen Tons
TTITLE11=Get Rhythm
TTITLE12=Jackson
TTITLE13=If I Were A Carpenter
TTITLE14=Orange Blossom Special
TTITLE15=Sunday Morning Coming Down
TTITLE16=Casey Jones
TTITLE17=Peace In The Valley
TTITLE18=I Walk The Line
EXTD=
EXTT0=
EXTT1=
EXTT2=
EXTT3=
EXTT4=
EXTT5=
EXTT6=
EXTT7=
EXTT8=
EXTT9=
EXTT10=
EXTT11=
EXTT12=
EXTT13=
EXTT14=
EXTT15=
EXTT16=
EXTT17=
EXTT18=
PLAYORDER=
